<svg xmlns="http://www.w3.org/2000/svg" xmlns:xlink="http://www.w3.org/1999/xlink" preserveAspectRatio="xMidYMid" width="220" height="220" viewBox="0 0 220 220">
  <defs>
    <style>
      .cls-1 {
        fill: #000;
        filter: url(#color-overlay-1);
        fill-rule: evenodd;
      }
    </style>

    <filter id="color-overlay-1" filterUnits="userSpaceOnUse">
      <feFlood flood-color="#fff"/>
      <feComposite operator="in" in2="SourceGraphic"/>
      <feBlend in2="SourceGraphic" result="solidFill"/>
    </filter>
  </defs>
  <path d="M184.747,113.256 C182.884,115.126 180.904,116.835 178.832,118.417 C181.261,113.198 182.305,108.029 181.938,102.910 C181.382,95.162 177.190,88.908 169.362,84.149 C161.533,79.394 149.665,75.493 133.759,72.445 C122.903,70.212 114.492,68.290 108.530,66.675 C102.565,65.064 97.742,62.925 94.058,60.258 C90.371,57.595 88.387,54.256 88.099,50.247 C87.745,45.305 91.168,39.861 98.373,33.917 C105.575,27.976 114.225,22.790 124.320,18.366 C134.412,13.942 143.147,11.439 150.522,10.858 C151.616,10.771 152.575,10.733 153.411,10.738 C165.781,13.326 176.153,18.737 184.527,26.976 C196.734,38.988 202.838,53.197 202.838,69.603 C202.838,86.596 196.807,101.148 184.747,113.256 ZM119.624,9.566 C107.039,15.062 96.607,21.730 88.328,29.570 C80.046,37.413 76.172,45.009 76.698,52.356 C77.091,57.836 79.551,62.309 84.079,65.782 C88.606,69.254 94.400,72.022 101.467,74.085 C108.531,76.148 118.512,78.620 131.414,81.499 C144.728,84.212 154.477,87.408 160.660,91.084 C166.840,94.763 170.140,99.475 170.551,105.219 C170.867,109.628 169.492,114.306 166.423,119.250 C164.259,122.739 161.327,125.877 157.660,128.681 C150.912,130.499 143.516,131.420 135.455,131.420 L106.845,131.420 C106.412,131.313 105.816,131.286 105.038,131.348 C104.944,131.355 104.845,131.390 104.746,131.420 L94.879,131.420 L94.879,213.597 L43.902,213.597 L43.902,8.959 L121.081,8.959 C120.594,9.165 120.114,9.352 119.624,9.566 Z" class="cls-1"/>
</svg>
