<?xml version="1.0" encoding="utf-8"?>
<!-- Generator: Adobe Illustrator 19.0.0, SVG Export Plug-In . SVG Version: 6.00 Build 0)  -->
<svg version="1.1" id="S_1_" xmlns="http://www.w3.org/2000/svg" xmlns:xlink="http://www.w3.org/1999/xlink" x="0px" y="0px"
	 viewBox="0 0 52.8 52.8" style="enable-background:new 0 0 52.8 52.8;" xml:space="preserve">
<g id="S">
	<g>
		<path d="M44.3,6.5c-2-2-4.5-3.3-7.5-3.9c-0.2,0-0.4,0-0.6,0c-1.8,0.1-3.9,0.7-6.3,1.8c-2.4,1.1-4.5,2.3-6.2,3.7
			c-1.7,1.4-2.6,2.7-2.5,3.9c0.1,1,0.5,1.8,1.4,2.4c0.9,0.6,2,1.2,3.5,1.5c1.4,0.4,3.4,0.8,6.1,1.4c3.8,0.7,6.7,1.7,8.5,2.8
			c1.9,1.1,2.9,2.6,3,4.5c0.1,1.2-0.2,2.5-0.7,3.7c0.5-0.4,1-0.8,1.4-1.2c2.9-2.9,4.3-6.4,4.3-10.5C48.7,12.8,47.2,9.4,44.3,6.5z
			 M38.6,21.9c-1.5-0.9-3.8-1.6-7-2.3c-3.1-0.7-5.5-1.3-7.2-1.8c-1.7-0.5-3.1-1.2-4.2-2c-1.1-0.8-1.7-1.9-1.8-3.2
			c-0.1-1.8,0.8-3.6,2.8-5.5c2-1.9,4.5-3.5,7.5-4.8c0.1-0.1,0.2-0.1,0.4-0.1H10.5v49.1h12.2V31.5h2.4c0,0,0,0,0,0c0.2,0,0.3,0,0.4,0
			h6.9c1.9,0,3.7-0.2,5.3-0.7c0.9-0.7,1.6-1.4,2.1-2.3c0.7-1.2,1.1-2.3,1-3.4C40.8,23.9,40,22.7,38.6,21.9z"/>
	</g>
</g>
</svg>
